<?xml version="1.0" encoding="UTF-8"?>
<svg id="Layer_2" data-name="Layer 2" xmlns="http://www.w3.org/2000/svg" viewBox="0 0 195.06 205.21">
  <defs>
    <style>
      .cls-1 {
        fill: #605151;
      }

      .cls-2 {
        fill: #51af9d;
      }
    </style>
  </defs>
  <g id="Layer_1-2" data-name="Layer 1">
    <path class="cls-2" d="m136.37,145.44c.84,2.52,2.2,5.57,4.07,9.15,1.87,3.75,3.22,6.76,4.07,9.03.84,2.28,1.16,4.78.95,7.52-.61,6.61-3.22,12.53-7.83,17.77-4.62,5.24-10.18,9.5-16.7,12.76-3.42,1.55-6.98,2.29-10.69,2.22-3.71-.07-9.26-1.3-16.63-3.7-7.38-2.39-12.92-3.63-16.63-3.7-1.13-.02-2.83.11-5.09.39-4.85.39-12.14,1.8-21.86,4.2-6.81,1.49-11.99,2.56-15.55,3.22-3.56.66-7.28.96-11.15.88-2.75-.05-5.48-.34-8.21-.88-3.54-.87-6.65-2.62-9.34-5.26-2.7-2.63-4.41-5.73-5.15-9.29-.44-2.27-.64-4.61-.6-7.03.09-5.16,1.62-13.68,4.59-25.57,1.92-7.71,3.41-14.34,4.48-19.89,1.07-5.55,1.66-11.3,1.77-17.28.19-10.32-1.33-19.71-4.56-28.16-3.41-7.65-4.63-16.14-3.64-25.48.96-8.37,4.4-15.41,10.31-21.11,5.91-5.7,12.9-8.48,20.97-8.33,5,.09,9.66,1.31,13.97,3.65,4.31,2.34,9.73,5.91,16.26,10.71,5.89,4.46,11.03,8.03,15.42,10.69,4.39,2.67,9.15,4.61,14.29,5.83,2.57.53,5.15.82,7.73.87l6.54-.12c1.29-.13,3.39-.18,6.3-.13,4.68.09,9.09,1.42,13.24,4,4.15,2.58,7.31,6.07,9.49,10.46,2.8,5.86,4.13,12.42,3.99,19.68-.11,5.81-1.31,13.77-3.59,23.9-1.06,4.82-1.77,8.52-2.14,11.09-.21,2.74.1,5.37.94,7.88Zm-14.07-31.12c.11-5.81-2.83-10.74-8.8-14.81-5.98-4.06-12.59-6.16-19.85-6.3-4.2-.08-7.92.66-11.18,2.21-3.26,1.55-5.64,3.93-7.15,7.13-1.83,3.03-2.8,7.54-2.91,13.5-.02,1.13-.02,3.31,0,6.54.02,3.23-.32,6.09-1.01,8.58-.69,2.49-1.78,4.69-3.27,6.6-1.84,3.2-4.96,6.69-9.39,10.48-2.96,2.69-5.3,5.15-7.04,7.38-1.74,2.23-2.95,4.71-3.65,7.44-.17.64-.27,1.45-.29,2.42-.06,3.07.95,5.38,3.02,6.96,2.07,1.57,4.63,2.38,7.7,2.44,2.42.04,4.81-.43,7.17-1.44,2.36-1,4.28-2.3,5.76-3.89,4.63-6.37,8.73-11.66,12.28-15.87,3.55-4.21,7.61-7.97,12.19-11.27l7.59-4.7c5.22-2.97,9.3-5.76,12.26-8.37,2.95-2.61,4.87-6.16,5.76-10.67.51-1.44.78-2.89.81-4.34Z"/>
    <path class="cls-1" d="m71.96,15.88c4.51.95,17.76,5.27,27.02,14.75,3.34,3.42,4.22,5.8,7.68,9.96,1.8,2.17,4.33,4.81,7.87,7.5,3.08,2.34,2.02,7.22-1.77,8.01-9.29,1.94-23.55,2.63-35.87-6.44-17.15-12.63-24.76-31.84-16.87-42.56,7.89-10.72,28.5-9.14,45.64,3.49,11.57,8.52,19.05,20.23,19.93,30.34.3,3.44-3.27,5.88-6.41,4.43s-6.6-3.57-9.8-6.64c-3.91-3.76-5.08-5.9-8.26-9.44-6.15-6.83-19.46-12.59-29.17-13.41Z"/>
    <path class="cls-2" d="m194.41,138.65c-3.15,12.56-12.19,22.45-22.25,29.71-10.36,8.22-26.02,16.79-37.79,5.92-10.07-9.74-11.62-28.11-10.01-41.25,2.79-18.14,13.24-43.76,35.37-42.65,21.39,1.76,38.98,27.63,34.69,48.27h0Zm-21.46-4.64c1.88-8.44-2.1-17.97-8.2-23.96-7.85-7.72-15.01-4.28-20.79,3.85-6.2,8.97-9.52,20.88-8.25,31.93.63,6.19,2.76,14.66,7.46,18.17,5.29,3.59,13.49-5.5,17.2-9.09,0,0,2.09-2.17,2.09-2.17,5.17-5.44,9.5-11.42,10.49-18.73h0Z"/>
  </g>
</svg>