<?xml version="1.0" encoding="UTF-8"?>
<svg id="Layer_2" data-name="Layer 2" xmlns="http://www.w3.org/2000/svg" viewBox="0 0 700.19 435.72">
  <defs>
    <style>
      .cls-1 {
        fill: #3c2f2f;
      }

      .cls-2 {
        fill: #854442;
      }

      .cls-3 {
        fill: #239e86;
      }
    </style>
  </defs>
  <g id="Layer_1-2" data-name="Layer 1">
    <g>
      <g>
        <path class="cls-3" d="m185.26,218.25c.17,2.65.7,5.95,1.59,9.89.85,4.1,1.38,7.36,1.62,9.77.23,2.42-.1,4.92-1.01,7.51-2.28,6.23-6.32,11.29-12.12,15.17-5.8,3.88-12.27,6.57-19.41,8.06-3.7.62-7.34.43-10.9-.59-3.57-1.02-8.62-3.62-15.13-7.83-6.52-4.2-11.56-6.82-15.13-7.83-1.09-.31-2.76-.62-5.02-.93-4.79-.86-12.19-1.37-22.21-1.54-6.96-.3-12.25-.59-15.86-.87-3.61-.27-7.28-.94-11.01-2-2.64-.75-5.21-1.74-7.71-2.95-3.19-1.75-5.76-4.24-7.69-7.47-1.93-3.23-2.8-6.67-2.6-10.3.15-2.3.56-4.62,1.22-6.95,1.41-4.96,5.07-12.81,10.98-23.55,3.83-6.96,6.97-12.99,9.43-18.08s4.5-10.5,6.14-16.25c2.83-9.93,3.76-19.39,2.8-28.39-1.34-8.26-.34-16.79,3-25.57,3.07-7.85,8.2-13.77,15.38-17.77,7.18-4,14.64-4.89,22.4-2.68,4.81,1.37,9,3.74,12.57,7.1,3.57,3.37,7.89,8.2,12.98,14.52,4.55,5.82,8.6,10.59,12.16,14.28,3.56,3.7,7.67,6.8,12.33,9.3,2.35,1.17,4.77,2.11,7.25,2.82l6.35,1.56c1.28.2,3.32.7,6.12,1.49,4.5,1.28,8.42,3.7,11.77,7.25,3.35,3.56,5.51,7.73,6.49,12.54,1.2,6.38.81,13.06-1.18,20.05-1.59,5.59-4.79,12.98-9.59,22.18-2.26,4.39-3.9,7.78-4.91,10.18-.91,2.6-1.28,5.22-1.11,7.86Zm-5.63-33.69c1.59-5.59.02-11.11-4.72-16.57-4.74-5.46-10.6-9.18-17.58-11.17-4.04-1.15-7.83-1.39-11.37-.72-3.55.67-6.46,2.36-8.74,5.06-2.55,2.46-4.64,6.57-6.27,12.31-.31,1.09-.87,3.19-1.67,6.32-.81,3.13-1.87,5.8-3.17,8.03-1.31,2.23-2.92,4.07-4.85,5.54-2.59,2.62-6.51,5.19-11.76,7.72-3.55,1.85-6.44,3.62-8.69,5.33-2.25,1.71-4.06,3.79-5.43,6.25-.33.58-.63,1.33-.9,2.26-.84,2.95-.46,5.45,1.14,7.5,1.59,2.05,3.87,3.49,6.82,4.33,2.33.66,4.76.81,7.3.44,2.53-.37,4.72-1.13,6.56-2.28,6.11-4.97,11.42-9.04,15.93-12.2,4.51-3.16,9.4-5.75,14.67-7.78l8.54-2.6c5.8-1.53,10.47-3.18,13.99-4.95,3.52-1.77,6.29-4.71,8.3-8.83.86-1.26,1.49-2.59,1.89-3.99Z"/>
        <path class="cls-3" d="m199.89,109.92c0-8.55,2.66-15.97,7.99-22.27,2.74-3.39,5.73-6.13,8.95-8.23,3.23-2.09,6.45-3.15,9.68-3.15,2.9,0,5.65.81,8.23,2.42l5.32,3.63c5.65,3.71,10.17,6.46,13.55,8.23,3.39,1.78,7.18,2.75,11.38,2.9h1.45c2.58.33,4.6.48,6.05.48,10,0,19.6-3.79,28.8-11.38l1.21-.97c5-3.23,10.17-4.84,15.49-4.84s10,1.45,14.52,4.36c4.52,2.9,7.82,6.94,9.92,12.1,1.77,3.87,2.66,7.26,2.66,10.16,0,4.84-1.61,9.24-4.84,13.19-3.23,3.96-7.38,7.06-12.46,9.32-5.08,2.26-10.21,3.39-15.37,3.39-10.49,0-24.44-1.61-41.87-4.84-1.29-.32-2.34-.48-3.15-.48-.65,0-1.78.16-3.39.48-5.17,1.29-7.74,4.11-7.74,8.47,0,2.9,1.21,6.01,3.63,9.32,2.42,3.31,5.57,6.17,9.44,8.59,2.58,1.61,5.57,2.42,8.95,2.42s6.86-.64,10.41-1.94c3.55-1.29,7.82-3.06,12.83-5.32.81-.32,2.74-1.21,5.81-2.66,3.06-1.45,5.65-2.26,7.74-2.42,6.78-.64,12.54.73,17.3,4.11,4.76,3.39,7.14,8.07,7.14,14.04,0,2.26-.48,4.84-1.45,7.74-1.29,3.55-3.23,6.05-5.81,7.5-2.58,1.45-5.17,2.3-7.74,2.54-2.58.24-6.7.36-12.34.36-6.46,0-11.22.73-14.28,2.18-3.39,2.1-7.18,3.15-11.38,3.15-3.71,0-8.71-1.05-15.01-3.15-.65-.16-2.7-.73-6.17-1.69-3.47-.97-6.82-1.45-10.04-1.45-2.58,0-4.92.33-7.02.97-4.04.97-6.05,3.87-6.05,8.71,0,1.94.36,3.99,1.09,6.17s1.65,3.91,2.78,5.2c3.23,5.17,11.13,7.74,23.72,7.74,6.45,0,13.23-.56,20.33-1.69,7.1-1.13,12.1-2.1,15-2.9l.97-.48c4.68-1.77,9.36-2.66,14.04-2.66,7.42,0,13.23,2.22,17.43,6.66,4.19,4.44,6.29,9.64,6.29,15.61s-2.18,11.09-6.53,15.37c-4.36,4.28-10.49,6.5-18.39,6.66-.65.16-1.21.2-1.69.12-.48-.08-.89-.12-1.21-.12-3.23-.48-6.74-1.21-10.53-2.18-3.79-.97-6.41-1.61-7.87-1.94-12.26-3.39-22.27-5.16-30.01-5.32-3.55.16-6.94.77-10.17,1.81-3.23,1.05-6.94,2.54-11.13,4.48-1.13.48-2.95,1.25-5.45,2.3-2.5,1.05-4.72,1.9-6.66,2.54-2.9.81-5.65,1.21-8.23,1.21-5.97,0-11.25-1.57-15.85-4.72-4.6-3.15-7.22-7.54-7.87-13.19-.48-2.42-.73-4.76-.73-7.02,0-4.36.73-8.51,2.18-12.46,1.45-3.95,3.63-8.75,6.53-14.4,3.87-7.42,6.37-13.15,7.5-17.18,1.13-2.9,1.69-5.97,1.69-9.2,0-4.03-.77-8.02-2.3-11.98-1.54-3.95-3.83-8.59-6.9-13.92-2.9-5.48-4.92-9.6-6.05-12.34l-.73-1.45c-2.42-4.36-3.63-9.92-3.63-16.7Z"/>
        <path class="cls-3" d="m367.54,141.17c-6.41-.74-11.27-3.36-14.57-7.88-3.3-4.52-4.62-9.66-3.96-15.44.79-6.89,4.13-12.64,10.02-17.24,5.89-4.6,13.8-6.33,23.74-5.2,3.2.37,5.67.81,7.4,1.34,8.79,2.63,18.08,4.51,27.86,5.63,13.14,1.51,26.68,1.68,40.62.52,1.16-.19,3.98-.68,8.45-1.47,4.47-.78,8.47-.98,12-.57,4.33.5,8.06,1.98,11.18,4.45.32.04.62.23.91.59,3.12,3.93,4.39,8.46,3.8,13.59-.64,5.61-3.14,10.4-7.49,14.37-4.35,3.97-9.5,5.61-15.42,4.93-1.92-.22-4.6-1.01-8.01-2.38-2.31-1.08-4.43-1.73-6.35-1.95-1.6-.18-3-.02-4.2.49-4.89,3.01-7.67,7.4-8.33,13.17-.57,4.97.21,10.18,2.35,15.62,2.14,5.44,5.07,11.71,8.81,18.79,1.17,2.57,2.55,5,4.16,7.3,1.6,2.3,3.76,5.06,6.48,8.29,3.87,4.5,6.82,8.5,8.86,11.98,2.04,3.48,3.21,7.43,3.51,11.85.15,2.94.08,5.7-.22,8.26-.9,7.86-3.86,14.5-8.86,19.93-5.01,5.44-11.23,9.39-18.66,11.87-7.43,2.48-14.99,3.27-22.69,2.39-7.54-.86-14.25-3.18-20.15-6.94-2.46-1.26-6.83-2.73-13.13-4.43-6.82-1.43-12.99-3.6-18.5-6.51-10.74-5.45-18.71-12.5-23.89-21.13-5.18-8.63-7.25-17.52-6.2-26.65.74-6.41,3.02-12.56,6.87-18.46,3.84-5.89,9.19-11.13,16.05-15.7l1.88-1.49c2.68-2.13,5.82-3.72,9.44-4.76,3.61-1.05,7.1-1.38,10.47-.99,5.61.64,9.94,3.25,12.99,7.82,4.03,4.52,5.57,10.87,4.64,19.05-.29,2.57-.63,4.8-1.01,6.71-.38,1.9-.73,3.49-1.03,4.75-1.23,5.06-1.99,8.87-2.29,11.43-.68,5.93.2,10.99,2.65,15.16,2.44,4.18,7.5,7.52,15.17,10.02.46.22,1.17.38,2.14.49,3.37.39,6.16-.59,8.38-2.94,1.66-1.76,2.61-3.68,2.85-5.76.39-3.37-.44-7.15-2.47-11.37-2.04-4.21-5.1-9.72-9.19-16.52-2.75-4.37-4.86-7.9-6.34-10.59-1.48-2.69-2.42-5.11-2.82-7.27-.95-4.49-1.2-10.12-.74-16.89.23-4.85.17-8.91-.18-12.2-.35-3.29-1.41-6.5-3.16-9.62-2.46-4.02-5.62-6.25-9.46-6.69-2.4-.28-5,.08-7.79,1.06-2.79.98-6,2.4-9.62,4.26-2.61,1.49-5.39,2.39-8.35,2.7-3.62.4-6.47.48-8.55.24Z"/>
        <path class="cls-3" d="m635.61,165.37c4.68,1.69,8.74,4.36,12.15,8.01,3.64,3.88,5.97,7.96,6.97,12.21,1,4.26.64,8.53-1.1,12.81-1.25,3.39-3.29,6.4-6.11,9.05-4.83,4.53-10.85,7.18-18.06,7.98-4.7.42-9.86-.37-15.5-2.38-5.64-2.01-11.28-6.01-16.91-12.02-1.99-2.12-3.42-3.76-4.29-4.93-1.54-1.65-2.92-2.35-4.13-2.1-1.21.25-3.22,1.47-6.03,3.66-4.58,3.85-9.28,6.27-14.1,7.25-2.52.38-4.55,1.28-6.08,2.71-1.53,1.44-2.45,3.52-2.77,6.25-.06,1.83.42,3.87,1.43,6.12,1.01,2.26,2.4,4.33,4.17,6.21,2.76,2.94,5.83,4.93,9.23,5.95l.17.18c3.37,1.71,6.16,3.74,8.36,6.09,4.08,4.36,6.32,9.34,6.71,14.94.02,2.86-.55,5.66-1.73,8.42-1.17,2.76-2.88,5.19-5.11,7.28-2.12,1.99-4.57,3.62-7.35,4.9-4.63,2.14-9.7,2.63-15.2,1.48-5.5-1.15-10.01-3.6-13.54-7.37-3.86-4.12-5.53-9.19-4.99-15.23-.04-9.25-1.89-15.81-5.53-19.7-1.99-2.12-4.22-3.62-6.7-4.5-2.48-.88-6.16-1.91-11.03-3.1-5.21-1.31-9.39-2.64-12.54-4-3.15-1.36-6.05-3.45-8.7-6.27-3.75-4-6.27-9.05-7.56-15.14-.63-5.38-.51-10.63.34-15.74s2.3-11.28,4.36-18.52c2.06-7.24,3.51-13.35,4.36-18.35.85-4.99.9-10.13.15-15.41-1.74-6.1-.88-11.67,2.59-16.7,1.2-1.79,2.62-3.45,4.27-5,3.53-3.31,7.76-5.4,12.7-6.27,2.99-.59,5.55-1.27,7.69-2.06,2.14-.78,3.43-1.17,3.89-1.16,6.33-1.51,11.88-1.96,16.65-1.35,4.77.61,10.18,2.96,16.21,7.03,4.49,2.43,8.22,5.23,11.2,8.41,3.75,4,6.3,8.19,7.64,12.57,1.34,4.38,2.48,9.78,3.42,16.21.43,4.24.95,7.62,1.56,10.15.6,2.53,1.73,4.68,3.39,6.44,1.1,1.18,2.61,2.2,4.52,3.06,2.81,1.35,5.81,2.01,9.01,2,3.19,0,7.09-.4,11.68-1.16l6.01-.66c4.81-.53,9.56.05,14.24,1.74Zm-83.23-12.87c-1.91-4.51-4.76-8.31-8.54-11.4-2.89-2.38-5.42-3.71-7.58-4.01-2.16-.3-4.18.44-6.06,2.2l-.18.17c-2.15,2.9-2.92,5.73-2.33,8.49s2.08,6.35,4.45,10.76c3.14,5.24,5.32,10.33,6.53,15.28,1.21,4.95.75,10.41-1.39,16.39-.38,1.25-.54,2.5-.46,3.75.09.58.47,1.21,1.14,1.92.55.59,1.29.9,2.2.93,2.96.1,5.92-1.23,8.86-3.99,2.35-2.21,3.51-4.39,3.46-6.57.15-1.02.3-2.1.45-3.24.15-1.13.36-2.38.63-3.75.58-3.86,1.06-8.07,1.43-12.62.16-5.01-.71-9.78-2.62-14.3Z"/>
        <path class="cls-2" d="m.39,292.86c-1.35-10.16.86-18.75,6.66-25.79,5.79-7.04,13.85-11.24,24.16-12.62,10.16-1.35,20.68.06,31.58,4.24,3.61,1.24,7.15,1.98,10.63,2.22,3.48.24,8.26.27,14.34.08,6.85-.29,12.02-.27,15.51.04l1.45.28c8.61,2.3,15.51,6.23,20.72,11.8,5.21,5.57,8.27,11.82,9.2,18.74.78,5.85,0,11.43-2.35,16.76-2.34,5.33-6.25,9.8-11.72,13.43-5.47,3.63-12.22,5.82-20.27,6.58-2.5.02-4.37.66-5.62,1.92-1.24,1.26-1.75,2.74-1.52,4.43.21,1.54.98,2.92,2.32,4.16,1.34,1.23,3.05,2.02,5.13,2.37,4.45.5,8.18.87,11.19,1.09,6.01.45,10.98,1.04,14.92,1.77,3.93.73,7.75,2.02,11.44,3.88,3.48,1.42,6.11,3.26,7.9,5.52,1.79,2.27,2.92,5.17,3.39,8.71.43,3.23.26,6.62-.52,10.17-2.65,10.69-8.97,19.01-18.99,24.97-10.01,5.96-21.64,9.82-34.87,11.58-6.46.86-12.68,1.22-18.65,1.08-.94-.03-3.89-.11-8.84-.23-4.95-.12-9.58.1-13.89.68-4.62.62-8.33,1.58-11.12,2.89-4.57,2.18-8.69,3.51-12.39,4-4.46.6-7.82-.21-10.07-2.42-2.25-2.2-3.69-5.62-4.3-10.23-.45-3.38-.5-7.84-.14-13.37.36-5.53.79-11.07,1.31-16.62.98-9.06,1.61-16.34,1.9-21.87.28-5.52.09-10.74-.56-15.66-.94-7.08-3.01-12.6-6.2-16.56-6.61-9.61-10.52-18.95-11.73-28.04Zm47.34,41.37c2.92-.39,7.03-1.88,12.33-4.46,3.64-2.05,6.44-3.91,8.42-5.59,2.39-2.04,4.97-3.52,7.75-4.44,2.77-.92,6.37-1.83,10.79-2.73,5.65-1.07,10.17-2.37,13.57-3.93,2.36-1.1,4.04-2.57,5.05-4.43.65-1.03.89-2.15.72-3.39-.37-2.77-3.18-4.74-8.43-5.92-5.25-1.18-11.41-1.3-18.49-.35-10.62,1.42-19.84,4.8-27.66,10.15-7.82,5.35-11.63,12.32-11.42,20.91.3,3.41,2.75,4.8,7.37,4.19Zm41.43,23.49c-2.99-1.25-5.84-2.12-8.57-2.62-2.73-.5-5.63-.54-8.71-.13-3.08.41-5.77,1.4-8.06,2.96-2.3,1.56-2.89,3.6-1.77,6.11.92,2.23,4.9,3.89,11.94,4.99,7.04,1.1,13.48,1.25,19.33.47,5.38-.72,7.95-2.08,7.68-4.08-.14-1.08-1.18-2.35-3.09-3.82-.87-.67-1.64-1.11-2.29-1.34-1.32-.45-3.46-1.3-6.45-2.55Z"/>
        <path class="cls-2" d="m284.22,403.89c-.38,8.22-3.02,15.44-7.89,21.66-4.88,6.22-11.29,9.61-19.24,10.17l-8.61-.4c-6.95-.94-11.92-3.47-14.92-7.57-3-4.1-4.33-9.64-4-16.62.05-1.08.3-3.17.76-6.26l.41-3.71c.38-8.06-1.1-15.55-4.43-22.47-3.33-6.92-8.41-10.53-15.23-10.85-2.64-.12-4.99.31-7.05,1.3-4.45,2.12-6.79,5.59-7.01,10.4-.11,2.33.47,6.63,1.73,12.9,1.53,7.22,2.2,12.69,2.03,16.41-.34,7.29-3.25,12.9-8.71,16.84-5.96,4.38-13.28,6.37-21.96,5.97-6.05-.28-11.66-1.63-16.83-4.05-6.03-4.01-8.85-10.12-8.47-18.34.19-4.03.93-8.38,2.24-13.07,1.3-4.68,3.19-10.22,5.67-16.64,2.32-6.42,4.07-11.5,5.26-15.26,1.18-3.75,1.85-7.26,2.01-10.51.2-4.34-.15-8.51-1.05-12.52-.9-4.01-2.36-9.39-4.37-16.17-1.88-6.3-3.28-11.42-4.18-15.35-.91-3.93-1.27-7.83-1.08-11.71.32-6.82,2.47-12.94,6.45-18.35,5.61-7.04,14-10.3,25.17-9.78,4.34.2,8.66.79,12.97,1.77,4.3.98,9.37,2.38,15.19,4.21,3.22.93,7.16,1.5,11.81,1.72,2.33.11,5.98.13,10.95.05,4.98-.08,8.63-.06,10.95.05,5.58.26,10.59,1.19,15.02,2.8,4.43,1.61,8.42,4.36,11.97,8.25,4.43,4.87,7.59,9.6,9.48,14.2,1.88,4.6,2.71,9.3,2.49,14.1-.18,3.88-.91,7.88-2.19,12.02-2.38,7.66-6.25,13.08-11.6,16.24-5.36,3.17-13.2,5.6-23.54,7.29-3.13.48-4.72,1.18-4.76,2.11-.04.78,1.2,1.73,3.71,2.85,2.51,1.13,5.06,2.14,7.67,3.04l4.81,1.86c7.14,3.44,12.27,6.87,15.37,10.28,3.1,3.41,6.23,8.06,9.37,13.96,2.72,4.95,3.93,10.67,3.63,17.19Zm-43.01-72.41c4.51-.1,7.64-.54,9.39-1.31,1.74-.77,2.7-2.86,2.86-6.28.11-2.33-.66-4.11-2.31-5.35-1.65-1.24-4.3-2.73-7.95-4.45l-4.79-2.32c-9.52-5.73-17.39-8.74-23.59-9.03-7.13-.33-12.16,2.46-15.08,8.39-1.04,2.28-1.61,4.51-1.71,6.68-.22,4.65,1.51,8.39,5.19,11.2,3.67,2.82,8.23,4.35,13.66,4.6,3.41.16,6.37-.09,8.89-.75,3.92-.9,9.07-1.36,15.45-1.38Z"/>
        <path class="cls-2" d="m422.07,407.65c-2.49,7.84-7.08,13.88-13.8,18.1-3.5,2.31-7.03,3.96-10.6,4.95-3.57.98-6.83,1.01-9.79.07-2.66-.84-4.94-2.38-6.84-4.61l-3.83-4.88c-4.1-5.05-7.45-8.87-10.04-11.49-2.59-2.62-5.79-4.6-9.59-5.97l-1.33-.42c-2.27-1.05-4.08-1.78-5.41-2.2-9.17-2.91-19.08-2.22-29.72,2.06l-1.39.54c-5.52,1.51-10.73,1.49-15.61-.06-4.73-1.5-8.75-4.24-12.05-8.22-3.3-3.98-5.16-8.64-5.58-13.98-.5-4.07-.33-7.43.51-10.1,1.41-4.44,4.17-8,8.27-10.69,4.11-2.69,8.82-4.33,14.14-4.92,5.32-.6,10.35-.14,15.08,1.36,9.62,3.05,21.95,8.58,37,16.61,1.09.67,2.01,1.12,2.75,1.36.59.19,1.68.37,3.25.54,5.11.31,8.3-1.52,9.57-5.52.84-2.66.64-5.87-.62-9.6-1.26-3.74-3.31-7.28-6.16-10.62-1.9-2.23-4.4-3.84-7.51-4.82-3.11-.99-6.48-1.4-10.11-1.25-3.63.15-8.07.54-13.31,1.16-.83.06-2.87.31-6.1.75-3.23.44-5.83.43-7.81-.03-6.4-1.38-11.29-4.31-14.68-8.8-3.38-4.49-4.2-9.48-2.47-14.95.66-2.07,1.85-4.3,3.58-6.68,2.22-2.88,4.72-4.61,7.51-5.19,2.79-.58,5.41-.61,7.84-.08,2.44.53,6.25,1.61,11.43,3.25,5.92,1.88,10.5,2.59,13.73,2.15,3.72-.94,7.5-.8,11.35.42,3.41,1.08,7.69,3.49,12.85,7.25.55.33,2.27,1.45,5.17,3.35,2.9,1.9,5.83,3.31,8.79,4.25,2.37.75,4.61,1.13,6.72,1.15,3.98.28,6.67-1.79,8.08-6.23.56-1.78.83-3.77.79-5.98-.03-2.21-.38-4.07-1.04-5.58-1.46-5.68-7.96-10.34-19.5-14-5.92-1.87-12.3-3.33-19.14-4.35-6.84-1.03-11.71-1.59-14.61-1.7l-1.03.16c-4.81.27-9.35-.28-13.65-1.64-6.81-2.16-11.49-5.88-14.05-11.17-2.56-5.29-2.97-10.67-1.24-16.15,1.73-5.48,5.22-9.54,10.46-12.2,5.24-2.66,11.51-2.91,18.8-.76.64.04,1.17.16,1.59.38.42.21.78.37,1.07.46,2.82,1.38,5.83,3.07,9.02,5.06,3.2,1.99,5.42,3.34,6.65,4.06,10.26,6.67,18.92,11.21,25.98,13.6,3.3.88,6.59,1.31,9.85,1.29,3.27-.03,7.1-.31,11.51-.87,1.18-.12,3.07-.29,5.66-.53,2.6-.24,4.88-.37,6.84-.4,2.9.1,5.53.53,7.9,1.28,5.48,1.74,9.87,4.71,13.17,8.94,3.3,4.22,4.43,9.02,3.38,14.38-.26,2.36-.72,4.57-1.37,6.65-1.27,4-3.14,7.59-5.62,10.8-2.48,3.2-5.87,6.97-10.18,11.31-5.71,5.68-9.67,10.21-11.88,13.58-1.88,2.34-3.29,4.98-4.23,7.94-1.17,3.7-1.63,7.58-1.37,11.66.26,4.07,1.02,8.99,2.28,14.77,1.07,5.87,1.73,10.23,1.96,13.08l.24,1.54c.95,4.7.45,10.16-1.52,16.37Z"/>
        <path class="cls-2" d="m593.02,339.49c-3.24,5.48-7.2,10.48-11.88,15.02-4.67,4.54-10.49,9.17-17.43,13.9-4.33,3.03-7.9,5.65-10.74,7.85-2.84,2.2-5.1,4.42-6.79,6.67-1.67,1.9-3.73,4.92-6.18,9.06l-7.75,13.54c-2.53,4.28-5.2,7.93-7.98,10.97-2.79,3.04-6.03,5.54-9.72,7.5-7.52,2.95-14.15,2.71-19.89-.69-4.41-2.61-7.6-6.67-9.57-12.17-1.98-5.5-2.34-11.58-1.1-18.24.49-2.05.07-3.48-1.26-4.27-1.34-.79-3.19-.94-5.55-.45-2.37.49-4.32,1.28-5.86,2.35-4.91,3.41-9.46,5.45-13.64,6.13-4.19.68-7.89.06-11.09-1.83-3.34-1.98-6.03-5.2-8.08-9.66-5.74-12.24-4.42-25.44,3.97-39.6,4.51-7.61,10.55-14.77,18.13-21.47,1.56-1.42,2.98-3.2,4.24-5.34,2.14-3.61,3.39-8.01,3.76-13.2.95-10.44,2.45-19.97,4.49-28.6,2.04-8.62,5.04-16.73,8.99-24.31,3.06-4.86,7.25-8.2,12.56-10.02,5.31-1.81,10.04-1.5,14.18.96,3.74,2.21,6.05,5.93,6.93,11.14.59,5.4,0,11.27-1.78,17.62-1.78,6.35-4.32,12.32-7.65,17.93-1.98,3.34-4.82,7.52-8.51,12.55-.47.8-1.79,2.64-3.94,5.51-2.16,2.88-4.05,5.99-5.68,9.36-1.34,3.18-1.69,6.35-1.04,9.53.64,3.18,2.03,5.4,4.17,6.67,2.67,1.58,5.68.93,9.01-1.97,2.67-2.38,5.12-5.45,7.33-9.19,1.5-2.54,2.94-5.43,4.32-8.67,1.38-3.24,2.24-5.31,2.58-6.19,2.15-5.76,4.13-10.18,5.96-13.25,2.14-3.61,4.65-6.4,7.54-8.39,2.89-1.98,6.53-3.03,10.92-3.14,2.02-.06,3.98.29,5.88,1.04.74.26,1.72.75,2.92,1.46,5.34,3.16,7.52,7.93,6.55,14.3-.98,6.37-4,13.83-9.06,22.38-1.82,3.07-6.23,9.75-13.22,20.04-3.46,4.63-6.46,9.08-8.99,13.35-1.29,2.48-1.66,4.93-1.1,7.33.56,2.41,1.84,4.2,3.84,5.39,3.34,1.98,6.81,1.6,10.42-1.14,4.56-3.43,8.3-7.62,11.23-12.56,3.56-6.01,5.28-12.12,5.17-18.32.06-3.75.72-7.69,1.99-11.81,1.27-4.12,3.01-8.05,5.22-11.79,3.96-6.68,8.81-11.52,14.55-14.52,5.74-3,11.71-3.03,17.91-.08,3.36,1.63,5.96,4.48,7.8,8.54,1.83,4.06,2.23,8.04,1.19,11.93-2.03,8-4.79,14.94-8.27,20.81Z"/>
      </g>
      <path class="cls-1" d="m628,252.18c6.15,1.64,24.13,8.55,36.21,22.3,4.36,4.96,5.41,8.31,9.87,14.3,2.33,3.12,5.63,6.94,10.32,10.91,4.08,3.45,2.26,10.11-3.02,10.93-12.95,2-32.69,1.94-49.02-11.46-22.75-18.66-31.87-45.71-20.21-59.93,11.66-14.22,39.98-10.56,62.73,8.1,15.35,12.59,24.83,29.28,25.31,43.29.16,4.77-4.94,7.88-9.16,5.65s-8.85-5.4-13.04-9.87c-5.12-5.46-6.58-8.5-10.72-13.62-8-9.87-25.94-18.77-39.28-20.6Z"/>
      <path class="cls-1" d="m232,21.63c6.15,1.64,24.13,8.55,36.21,22.3,4.36,4.96,5.41,8.31,9.87,14.3,2.33,3.12,5.63,6.94,10.32,10.91,4.08,3.45,2.26,10.11-3.02,10.93-12.95,2-32.69,1.94-49.02-11.46-22.75-18.66-31.87-45.71-20.21-59.93,11.66-14.22,39.98-10.56,62.73,8.1,15.35,12.59,24.83,29.28,25.31,43.29.16,4.77-4.94,7.88-9.16,5.65s-8.85-5.4-13.04-9.87c-5.12-5.46-6.58-8.5-10.72-13.62-8-9.87-25.94-18.77-39.28-20.6Z"/>
      <path class="cls-1" d="m633.18,330.26c-.19,3.31-3.89,11.68-10.08,18.94-2.94,3.45-8,5.55-9.74,11.23-.82,2.65-4.67,3.07-5.68-.82-1.62-6.2-2.16-14.3,1.98-22.18,7.14-13.57,19.99-21.07,28.47-16.61,8.48,4.46,9.59,19.3,2.46,32.87-3.74,7.12-9.12,12.68-14.66,15.62-4.31,2.28-9.04-2.42-6.85-6.78.53-1.04,1.15-2.1,1.89-3.14,2.25-3.19,3.65-4.25,5.83-6.91,4.2-5.12,6.86-15.22,6.39-22.22Z"/>
      <path class="cls-1" d="m181.58,77.38c-.19,3.31-3.89,11.68-10.08,18.94-2.94,3.45-8,5.55-9.74,11.23-.82,2.65-4.67,3.07-5.68-.82-1.62-6.2-2.16-14.3,1.98-22.18,7.14-13.57,19.99-21.07,28.47-16.61,8.48,4.46,9.59,19.3,2.46,32.87-3.74,7.12-9.12,12.68-14.66,15.62-4.31,2.28-9.04-2.42-6.85-6.78.53-1.04,1.15-2.1,1.89-3.14,2.25-3.19,3.65-4.25,5.83-6.91,4.2-5.12,6.86-15.22,6.39-22.22Z"/>
    </g>
  </g>
</svg>