<?xml version="1.0" encoding="UTF-8"?>
<svg id="Layer_2" data-name="Layer 2" xmlns="http://www.w3.org/2000/svg" viewBox="0 0 713.3 497.17">
  <defs>
    <style>
      .cls-1, .cls-2, .cls-3, .cls-4, .cls-5 {
        fill: #3c2f2f;
      }

      .cls-2 {
        letter-spacing: -.08em;
      }

      .cls-2, .cls-6, .cls-7, .cls-8, .cls-3, .cls-4, .cls-5, .cls-9 {
        font-family: AURORA-Regular, AURORA;
      }

      .cls-2, .cls-3, .cls-4, .cls-5 {
        font-size: 232.86px;
      }

      .cls-6 {
        letter-spacing: -.08em;
      }

      .cls-6, .cls-7, .cls-8, .cls-9 {
        fill: #239e86;
        font-size: 242.02px;
      }

      .cls-7 {
        letter-spacing: .05em;
      }

      .cls-8 {
        letter-spacing: -.3em;
      }

      .cls-3 {
        letter-spacing: -.9em;
      }

      .cls-4 {
        letter-spacing: -.1em;
      }

      .cls-5 {
        letter-spacing: .42em;
      }

      .cls-9 {
        letter-spacing: .46em;
      }
    </style>
  </defs>
  <g id="Layer_1-2" data-name="Layer 1">
    <g>
      <text class="cls-7" transform="translate(48.87 239.97) rotate(15.89)"><tspan x="0" y="0">D</tspan></text>
      <text class="cls-6" transform="translate(210.57 244.48)"><tspan x="0" y="0">E</tspan></text>
      <text class="cls-8" transform="translate(344.17 253.18) rotate(6.54)"><tspan x="0" y="0">J</tspan></text>
      <text class="cls-9" transform="translate(572.08 293.11) rotate(-43.15)"><tspan x="0" y="0">A</tspan></text>
      <text class="cls-2" transform="translate(28.09 419.88) rotate(-7.6)"><tspan x="0" y="0">B</tspan></text>
      <text class="cls-4" transform="translate(153.9 430.29) rotate(2.67)"><tspan x="0" y="0">R</tspan></text>
      <text class="cls-3" transform="translate(476.5 284.93) rotate(-162.42)"><tspan x="0" y="0">E</tspan></text>
      <text class="cls-5" transform="translate(421.61 372.29) rotate(30.64)"><tspan x="0" y="0">W</tspan></text>
      <path class="cls-1" d="m641.1,252.18c6.15,1.64,24.13,8.55,36.21,22.3,4.36,4.96,5.41,8.31,9.87,14.3,2.33,3.12,5.63,6.94,10.32,10.91,4.08,3.45,2.26,10.11-3.02,10.93-12.95,2-32.69,1.94-49.02-11.46-22.75-18.66-31.87-45.71-20.21-59.93,11.66-14.22,39.98-10.56,62.73,8.1,15.35,12.59,24.83,29.28,25.31,43.29.16,4.77-4.94,7.88-9.16,5.65s-8.85-5.4-13.04-9.87c-5.12-5.46-6.58-8.5-10.72-13.62-8-9.87-25.94-18.77-39.28-20.6Z"/>
      <path class="cls-1" d="m245.1,21.63c6.15,1.64,24.13,8.55,36.21,22.3,4.36,4.96,5.41,8.31,9.87,14.3,2.33,3.12,5.63,6.94,10.32,10.91,4.08,3.45,2.26,10.11-3.02,10.93-12.95,2-32.69,1.94-49.02-11.46-22.75-18.66-31.87-45.71-20.21-59.93,11.66-14.22,39.98-10.56,62.73,8.1,15.35,12.59,24.83,29.28,25.31,43.29.16,4.77-4.94,7.88-9.16,5.65s-8.85-5.4-13.04-9.87c-5.12-5.46-6.58-8.5-10.72-13.62-8-9.87-25.94-18.77-39.28-20.6Z"/>
      <path class="cls-1" d="m646.29,330.26c-.19,3.31-3.89,11.68-10.08,18.94-2.94,3.45-8,5.55-9.74,11.23-.82,2.65-4.67,3.07-5.68-.82-1.62-6.2-2.16-14.3,1.98-22.18,7.14-13.57,19.99-21.07,28.47-16.61,8.48,4.46,9.59,19.3,2.46,32.87-3.74,7.12-9.12,12.68-14.66,15.62-4.31,2.28-9.04-2.42-6.85-6.78.53-1.04,1.15-2.1,1.89-3.14,2.25-3.19,3.65-4.25,5.83-6.91,4.2-5.12,6.86-15.22,6.39-22.22Z"/>
      <path class="cls-1" d="m194.69,77.38c-.19,3.31-3.89,11.68-10.08,18.94-2.94,3.45-8,5.55-9.74,11.23-.82,2.65-4.67,3.07-5.68-.82-1.62-6.2-2.16-14.3,1.98-22.18,7.14-13.57,19.99-21.07,28.47-16.61,8.48,4.46,9.59,19.3,2.46,32.87-3.74,7.12-9.12,12.68-14.66,15.62-4.31,2.28-9.04-2.42-6.85-6.78.53-1.04,1.15-2.1,1.89-3.14,2.25-3.19,3.65-4.25,5.83-6.91,4.2-5.12,6.86-15.22,6.39-22.22Z"/>
    </g>
  </g>
</svg>